<svg width="688" height="374" xmlns="http://www.w3.org/2000/svg" viewBox="0 0 688 374" font-family="Georgia,serif">
<text x="10.0" y="22.0" font-size="13" fill="#8a6d3b" text-anchor="start">删 260 有三条合法走法（前驱/后继任选，合并时左右兄弟任选）—— 三个根都可能，唯独 60,90,110,350 出不来</text>
<text x="10.0" y="47.0" font-size="13" fill="#8a6d3b" text-anchor="start">情况①　用前驱 110 顶上 → [100] 亏空 → 向左兄弟借 85（85 上、90 下）　⟹ 根 = 60,85,110,350</text>
<line x1="141.5" y1="80.0" x2="40.0" y2="102.0" stroke="#2b2b2b" stroke-width="1.3"/>
<line x1="171.5" y1="80.0" x2="114.0" y2="102.0" stroke="#2b2b2b" stroke-width="1.3"/>
<line x1="201.5" y1="80.0" x2="192.5" y2="102.0" stroke="#2b2b2b" stroke-width="1.3"/>
<line x1="240.5" y1="80.0" x2="280.0" y2="102.0" stroke="#2b2b2b" stroke-width="1.3"/>
<line x1="279.5" y1="80.0" x2="372.0" y2="102.0" stroke="#2b2b2b" stroke-width="1.3"/>
<rect x="141.5" y="56.0" width="138" height="24" rx="3" fill="#e8f6ee" stroke="#2b2b2b" stroke-width="1.3"/>
<text x="156.5" y="72.5" text-anchor="middle" font-size="13" fill="#2b2b2b">60</text>
<line x1="171.5" y1="56.0" x2="171.5" y2="80.0" stroke="#2b2b2b" stroke-width="1.1"/>
<text x="186.5" y="72.5" text-anchor="middle" font-size="13" fill="#2b2b2b">85</text>
<line x1="201.5" y1="56.0" x2="201.5" y2="80.0" stroke="#2b2b2b" stroke-width="1.1"/>
<text x="221.0" y="72.5" text-anchor="middle" font-size="13" fill="#2b2b2b">110</text>
<line x1="240.5" y1="56.0" x2="240.5" y2="80.0" stroke="#2b2b2b" stroke-width="1.1"/>
<text x="260.0" y="72.5" text-anchor="middle" font-size="13" fill="#2b2b2b">350</text>
<rect x="10.0" y="102.0" width="60" height="24" rx="3" fill="#ffffff" stroke="#2b2b2b" stroke-width="1.3"/>
<text x="25.0" y="118.5" text-anchor="middle" font-size="13" fill="#2b2b2b">30</text>
<line x1="40.0" y1="102.0" x2="40.0" y2="126.0" stroke="#2b2b2b" stroke-width="1.1"/>
<text x="55.0" y="118.5" text-anchor="middle" font-size="13" fill="#2b2b2b">50</text>
<rect x="84.0" y="102.0" width="60" height="24" rx="3" fill="#ffffff" stroke="#2b2b2b" stroke-width="1.3"/>
<text x="99.0" y="118.5" text-anchor="middle" font-size="13" fill="#2b2b2b">70</text>
<line x1="114.0" y1="102.0" x2="114.0" y2="126.0" stroke="#2b2b2b" stroke-width="1.1"/>
<text x="129.0" y="118.5" text-anchor="middle" font-size="13" fill="#2b2b2b">80</text>
<rect x="158.0" y="102.0" width="69" height="24" rx="3" fill="#ffffff" stroke="#2b2b2b" stroke-width="1.3"/>
<text x="173.0" y="118.5" text-anchor="middle" font-size="13" fill="#2b2b2b">90</text>
<line x1="188.0" y1="102.0" x2="188.0" y2="126.0" stroke="#2b2b2b" stroke-width="1.1"/>
<text x="207.5" y="118.5" text-anchor="middle" font-size="13" fill="#2b2b2b">100</text>
<rect x="241.0" y="102.0" width="78" height="24" rx="3" fill="#ffffff" stroke="#2b2b2b" stroke-width="1.3"/>
<text x="260.5" y="118.5" text-anchor="middle" font-size="13" fill="#2b2b2b">280</text>
<line x1="280.0" y1="102.0" x2="280.0" y2="126.0" stroke="#2b2b2b" stroke-width="1.1"/>
<text x="299.5" y="118.5" text-anchor="middle" font-size="13" fill="#2b2b2b">300</text>
<rect x="333.0" y="102.0" width="78" height="24" rx="3" fill="#ffffff" stroke="#2b2b2b" stroke-width="1.3"/>
<text x="352.5" y="118.5" text-anchor="middle" font-size="13" fill="#2b2b2b">400</text>
<line x1="372.0" y1="102.0" x2="372.0" y2="126.0" stroke="#2b2b2b" stroke-width="1.1"/>
<text x="391.5" y="118.5" text-anchor="middle" font-size="13" fill="#2b2b2b">500</text>
<text x="10.0" y="159.0" font-size="13" fill="#8a6d3b" text-anchor="start">情况②　用后继 280 顶上 → [300] 亏空、左右都不够借 → 与左兄弟 + 关键字 280 合并　⟹ 根 = 60,90,350</text>
<line x1="173.5" y1="192.0" x2="40.0" y2="214.0" stroke="#2b2b2b" stroke-width="1.3"/>
<line x1="203.5" y1="192.0" x2="129.0" y2="214.0" stroke="#2b2b2b" stroke-width="1.3"/>
<line x1="233.5" y1="192.0" x2="266.0" y2="214.0" stroke="#2b2b2b" stroke-width="1.3"/>
<line x1="272.5" y1="192.0" x2="397.0" y2="214.0" stroke="#2b2b2b" stroke-width="1.3"/>
<rect x="173.5" y="168.0" width="99" height="24" rx="3" fill="#e8f6ee" stroke="#2b2b2b" stroke-width="1.3"/>
<text x="188.5" y="184.5" text-anchor="middle" font-size="13" fill="#2b2b2b">60</text>
<line x1="203.5" y1="168.0" x2="203.5" y2="192.0" stroke="#2b2b2b" stroke-width="1.1"/>
<text x="218.5" y="184.5" text-anchor="middle" font-size="13" fill="#2b2b2b">90</text>
<line x1="233.5" y1="168.0" x2="233.5" y2="192.0" stroke="#2b2b2b" stroke-width="1.1"/>
<text x="253.0" y="184.5" text-anchor="middle" font-size="13" fill="#2b2b2b">350</text>
<rect x="10.0" y="214.0" width="60" height="24" rx="3" fill="#ffffff" stroke="#2b2b2b" stroke-width="1.3"/>
<text x="25.0" y="230.5" text-anchor="middle" font-size="13" fill="#2b2b2b">30</text>
<line x1="40.0" y1="214.0" x2="40.0" y2="238.0" stroke="#2b2b2b" stroke-width="1.1"/>
<text x="55.0" y="230.5" text-anchor="middle" font-size="13" fill="#2b2b2b">50</text>
<rect x="84.0" y="214.0" width="90" height="24" rx="3" fill="#ffffff" stroke="#2b2b2b" stroke-width="1.3"/>
<text x="99.0" y="230.5" text-anchor="middle" font-size="13" fill="#2b2b2b">70</text>
<line x1="114.0" y1="214.0" x2="114.0" y2="238.0" stroke="#2b2b2b" stroke-width="1.1"/>
<text x="129.0" y="230.5" text-anchor="middle" font-size="13" fill="#2b2b2b">80</text>
<line x1="144.0" y1="214.0" x2="144.0" y2="238.0" stroke="#2b2b2b" stroke-width="1.1"/>
<text x="159.0" y="230.5" text-anchor="middle" font-size="13" fill="#2b2b2b">85</text>
<rect x="188.0" y="214.0" width="156" height="24" rx="3" fill="#ffffff" stroke="#2b2b2b" stroke-width="1.3"/>
<text x="207.5" y="230.5" text-anchor="middle" font-size="13" fill="#2b2b2b">100</text>
<line x1="227.0" y1="214.0" x2="227.0" y2="238.0" stroke="#2b2b2b" stroke-width="1.1"/>
<text x="246.5" y="230.5" text-anchor="middle" font-size="13" fill="#2b2b2b">110</text>
<line x1="266.0" y1="214.0" x2="266.0" y2="238.0" stroke="#2b2b2b" stroke-width="1.1"/>
<text x="285.5" y="230.5" text-anchor="middle" font-size="13" fill="#2b2b2b">280</text>
<line x1="305.0" y1="214.0" x2="305.0" y2="238.0" stroke="#2b2b2b" stroke-width="1.1"/>
<text x="324.5" y="230.5" text-anchor="middle" font-size="13" fill="#2b2b2b">300</text>
<rect x="358.0" y="214.0" width="78" height="24" rx="3" fill="#ffffff" stroke="#2b2b2b" stroke-width="1.3"/>
<text x="377.5" y="230.5" text-anchor="middle" font-size="13" fill="#2b2b2b">400</text>
<line x1="397.0" y1="214.0" x2="397.0" y2="238.0" stroke="#2b2b2b" stroke-width="1.1"/>
<text x="416.5" y="230.5" text-anchor="middle" font-size="13" fill="#2b2b2b">500</text>
<text x="10.0" y="271.0" font-size="13" fill="#8a6d3b" text-anchor="start">情况③　用后继 280 顶上 → [300] 亏空 → 改与右兄弟 + 关键字 350 合并　⟹ 根 = 60,90,280</text>
<line x1="173.5" y1="304.0" x2="40.0" y2="326.0" stroke="#2b2b2b" stroke-width="1.3"/>
<line x1="203.5" y1="304.0" x2="129.0" y2="326.0" stroke="#2b2b2b" stroke-width="1.3"/>
<line x1="233.5" y1="304.0" x2="227.0" y2="326.0" stroke="#2b2b2b" stroke-width="1.3"/>
<line x1="272.5" y1="304.0" x2="358.0" y2="326.0" stroke="#2b2b2b" stroke-width="1.3"/>
<rect x="173.5" y="280.0" width="99" height="24" rx="3" fill="#e8f6ee" stroke="#2b2b2b" stroke-width="1.3"/>
<text x="188.5" y="296.5" text-anchor="middle" font-size="13" fill="#2b2b2b">60</text>
<line x1="203.5" y1="280.0" x2="203.5" y2="304.0" stroke="#2b2b2b" stroke-width="1.1"/>
<text x="218.5" y="296.5" text-anchor="middle" font-size="13" fill="#2b2b2b">90</text>
<line x1="233.5" y1="280.0" x2="233.5" y2="304.0" stroke="#2b2b2b" stroke-width="1.1"/>
<text x="253.0" y="296.5" text-anchor="middle" font-size="13" fill="#2b2b2b">280</text>
<rect x="10.0" y="326.0" width="60" height="24" rx="3" fill="#ffffff" stroke="#2b2b2b" stroke-width="1.3"/>
<text x="25.0" y="342.5" text-anchor="middle" font-size="13" fill="#2b2b2b">30</text>
<line x1="40.0" y1="326.0" x2="40.0" y2="350.0" stroke="#2b2b2b" stroke-width="1.1"/>
<text x="55.0" y="342.5" text-anchor="middle" font-size="13" fill="#2b2b2b">50</text>
<rect x="84.0" y="326.0" width="90" height="24" rx="3" fill="#ffffff" stroke="#2b2b2b" stroke-width="1.3"/>
<text x="99.0" y="342.5" text-anchor="middle" font-size="13" fill="#2b2b2b">70</text>
<line x1="114.0" y1="326.0" x2="114.0" y2="350.0" stroke="#2b2b2b" stroke-width="1.1"/>
<text x="129.0" y="342.5" text-anchor="middle" font-size="13" fill="#2b2b2b">80</text>
<line x1="144.0" y1="326.0" x2="144.0" y2="350.0" stroke="#2b2b2b" stroke-width="1.1"/>
<text x="159.0" y="342.5" text-anchor="middle" font-size="13" fill="#2b2b2b">85</text>
<rect x="188.0" y="326.0" width="78" height="24" rx="3" fill="#ffffff" stroke="#2b2b2b" stroke-width="1.3"/>
<text x="207.5" y="342.5" text-anchor="middle" font-size="13" fill="#2b2b2b">100</text>
<line x1="227.0" y1="326.0" x2="227.0" y2="350.0" stroke="#2b2b2b" stroke-width="1.1"/>
<text x="246.5" y="342.5" text-anchor="middle" font-size="13" fill="#2b2b2b">110</text>
<rect x="280.0" y="326.0" width="156" height="24" rx="3" fill="#ffffff" stroke="#2b2b2b" stroke-width="1.3"/>
<text x="299.5" y="342.5" text-anchor="middle" font-size="13" fill="#2b2b2b">300</text>
<line x1="319.0" y1="326.0" x2="319.0" y2="350.0" stroke="#2b2b2b" stroke-width="1.1"/>
<text x="338.5" y="342.5" text-anchor="middle" font-size="13" fill="#2b2b2b">350</text>
<line x1="358.0" y1="326.0" x2="358.0" y2="350.0" stroke="#2b2b2b" stroke-width="1.1"/>
<text x="377.5" y="342.5" text-anchor="middle" font-size="13" fill="#2b2b2b">400</text>
<line x1="397.0" y1="326.0" x2="397.0" y2="350.0" stroke="#2b2b2b" stroke-width="1.1"/>
<text x="416.5" y="342.5" text-anchor="middle" font-size="13" fill="#2b2b2b">500</text>
</svg>
