<svg width="924" height="254" xmlns="http://www.w3.org/2000/svg" viewBox="0 0 924 254" font-family="Georgia,serif">
<text x="10.0" y="22.0" font-size="13" fill="#8a6d3b" text-anchor="start">4 阶 B 树：结点满 3 个关键字，插到第 4 个就分裂，上升的是第 ⌈4/2⌉ = 2 个关键字</text>
<text x="10.0" y="47.0" font-size="13" fill="#8a6d3b" text-anchor="start">插入 5</text>
<rect x="10.0" y="56.0" width="26" height="24" rx="3" fill="#ffffff" stroke="#2b2b2b" stroke-width="1.3"/>
<text x="23.0" y="72.5" text-anchor="middle" font-size="13" fill="#2b2b2b">5</text>
<text x="246.0" y="47.0" font-size="13" fill="#8a6d3b" text-anchor="start">插入 6</text>
<rect x="246.0" y="56.0" width="52" height="24" rx="3" fill="#ffffff" stroke="#2b2b2b" stroke-width="1.3"/>
<text x="259.0" y="72.5" text-anchor="middle" font-size="13" fill="#2b2b2b">5</text>
<line x1="272.0" y1="56.0" x2="272.0" y2="80.0" stroke="#2b2b2b" stroke-width="1.1"/>
<text x="285.0" y="72.5" text-anchor="middle" font-size="13" fill="#2b2b2b">6</text>
<text x="482.0" y="47.0" font-size="13" fill="#8a6d3b" text-anchor="start">插入 9</text>
<rect x="482.0" y="56.0" width="78" height="24" rx="3" fill="#ffffff" stroke="#2b2b2b" stroke-width="1.3"/>
<text x="495.0" y="72.5" text-anchor="middle" font-size="13" fill="#2b2b2b">5</text>
<line x1="508.0" y1="56.0" x2="508.0" y2="80.0" stroke="#2b2b2b" stroke-width="1.1"/>
<text x="521.0" y="72.5" text-anchor="middle" font-size="13" fill="#2b2b2b">6</text>
<line x1="534.0" y1="56.0" x2="534.0" y2="80.0" stroke="#2b2b2b" stroke-width="1.1"/>
<text x="547.0" y="72.5" text-anchor="middle" font-size="13" fill="#2b2b2b">9</text>
<text x="718.0" y="47.0" font-size="13" fill="#8a6d3b" text-anchor="start">插入 13（溢出→分裂）</text>
<line x1="753.0" y1="80.0" x2="731.0" y2="102.0" stroke="#2b2b2b" stroke-width="1.3"/>
<line x1="779.0" y1="80.0" x2="786.0" y2="102.0" stroke="#2b2b2b" stroke-width="1.3"/>
<rect x="753.0" y="56.0" width="26" height="24" rx="3" fill="#ffffff" stroke="#2b2b2b" stroke-width="1.3"/>
<text x="766.0" y="72.5" text-anchor="middle" font-size="13" fill="#2b2b2b">6</text>
<rect x="718.0" y="102.0" width="26" height="24" rx="3" fill="#ffffff" stroke="#2b2b2b" stroke-width="1.3"/>
<text x="731.0" y="118.5" text-anchor="middle" font-size="13" fill="#2b2b2b">5</text>
<rect x="758.0" y="102.0" width="56" height="24" rx="3" fill="#ffffff" stroke="#2b2b2b" stroke-width="1.3"/>
<text x="771.0" y="118.5" text-anchor="middle" font-size="13" fill="#2b2b2b">9</text>
<line x1="784.0" y1="102.0" x2="784.0" y2="126.0" stroke="#2b2b2b" stroke-width="1.1"/>
<text x="799.0" y="118.5" text-anchor="middle" font-size="13" fill="#2b2b2b">13</text>
<text x="10.0" y="155.0" font-size="13" fill="#8a6d3b" text-anchor="start">插入 8</text>
<line x1="58.0" y1="188.0" x2="23.0" y2="210.0" stroke="#2b2b2b" stroke-width="1.3"/>
<line x1="84.0" y1="188.0" x2="91.0" y2="210.0" stroke="#2b2b2b" stroke-width="1.3"/>
<rect x="58.0" y="164.0" width="26" height="24" rx="3" fill="#ffffff" stroke="#2b2b2b" stroke-width="1.3"/>
<text x="71.0" y="180.5" text-anchor="middle" font-size="13" fill="#2b2b2b">6</text>
<rect x="10.0" y="210.0" width="26" height="24" rx="3" fill="#ffffff" stroke="#2b2b2b" stroke-width="1.3"/>
<text x="23.0" y="226.5" text-anchor="middle" font-size="13" fill="#2b2b2b">5</text>
<rect x="50.0" y="210.0" width="82" height="24" rx="3" fill="#ffffff" stroke="#2b2b2b" stroke-width="1.3"/>
<text x="63.0" y="226.5" text-anchor="middle" font-size="13" fill="#2b2b2b">8</text>
<line x1="76.0" y1="210.0" x2="76.0" y2="234.0" stroke="#2b2b2b" stroke-width="1.1"/>
<text x="89.0" y="226.5" text-anchor="middle" font-size="13" fill="#2b2b2b">9</text>
<line x1="102.0" y1="210.0" x2="102.0" y2="234.0" stroke="#2b2b2b" stroke-width="1.1"/>
<text x="117.0" y="226.5" text-anchor="middle" font-size="13" fill="#2b2b2b">13</text>
<text x="246.0" y="155.0" font-size="13" fill="#8a6d3b" text-anchor="start">插入 2</text>
<line x1="307.0" y1="188.0" x2="272.0" y2="210.0" stroke="#2b2b2b" stroke-width="1.3"/>
<line x1="333.0" y1="188.0" x2="353.0" y2="210.0" stroke="#2b2b2b" stroke-width="1.3"/>
<rect x="307.0" y="164.0" width="26" height="24" rx="3" fill="#ffffff" stroke="#2b2b2b" stroke-width="1.3"/>
<text x="320.0" y="180.5" text-anchor="middle" font-size="13" fill="#2b2b2b">6</text>
<rect x="246.0" y="210.0" width="52" height="24" rx="3" fill="#ffffff" stroke="#2b2b2b" stroke-width="1.3"/>
<text x="259.0" y="226.5" text-anchor="middle" font-size="13" fill="#2b2b2b">2</text>
<line x1="272.0" y1="210.0" x2="272.0" y2="234.0" stroke="#2b2b2b" stroke-width="1.1"/>
<text x="285.0" y="226.5" text-anchor="middle" font-size="13" fill="#2b2b2b">5</text>
<rect x="312.0" y="210.0" width="82" height="24" rx="3" fill="#ffffff" stroke="#2b2b2b" stroke-width="1.3"/>
<text x="325.0" y="226.5" text-anchor="middle" font-size="13" fill="#2b2b2b">8</text>
<line x1="338.0" y1="210.0" x2="338.0" y2="234.0" stroke="#2b2b2b" stroke-width="1.1"/>
<text x="351.0" y="226.5" text-anchor="middle" font-size="13" fill="#2b2b2b">9</text>
<line x1="364.0" y1="210.0" x2="364.0" y2="234.0" stroke="#2b2b2b" stroke-width="1.1"/>
<text x="379.0" y="226.5" text-anchor="middle" font-size="13" fill="#2b2b2b">13</text>
<text x="482.0" y="155.0" font-size="13" fill="#8a6d3b" text-anchor="start">插入 12（溢出→分裂）</text>
<line x1="539.0" y1="188.0" x2="508.0" y2="210.0" stroke="#2b2b2b" stroke-width="1.3"/>
<line x1="565.0" y1="188.0" x2="561.0" y2="210.0" stroke="#2b2b2b" stroke-width="1.3"/>
<line x1="591.0" y1="188.0" x2="618.0" y2="210.0" stroke="#2b2b2b" stroke-width="1.3"/>
<rect x="539.0" y="164.0" width="52" height="24" rx="3" fill="#ffffff" stroke="#2b2b2b" stroke-width="1.3"/>
<text x="552.0" y="180.5" text-anchor="middle" font-size="13" fill="#2b2b2b">6</text>
<line x1="565.0" y1="164.0" x2="565.0" y2="188.0" stroke="#2b2b2b" stroke-width="1.1"/>
<text x="578.0" y="180.5" text-anchor="middle" font-size="13" fill="#2b2b2b">9</text>
<rect x="482.0" y="210.0" width="52" height="24" rx="3" fill="#ffffff" stroke="#2b2b2b" stroke-width="1.3"/>
<text x="495.0" y="226.5" text-anchor="middle" font-size="13" fill="#2b2b2b">2</text>
<line x1="508.0" y1="210.0" x2="508.0" y2="234.0" stroke="#2b2b2b" stroke-width="1.1"/>
<text x="521.0" y="226.5" text-anchor="middle" font-size="13" fill="#2b2b2b">5</text>
<rect x="548.0" y="210.0" width="26" height="24" rx="3" fill="#ffffff" stroke="#2b2b2b" stroke-width="1.3"/>
<text x="561.0" y="226.5" text-anchor="middle" font-size="13" fill="#2b2b2b">8</text>
<rect x="588.0" y="210.0" width="60" height="24" rx="3" fill="#ffffff" stroke="#2b2b2b" stroke-width="1.3"/>
<text x="603.0" y="226.5" text-anchor="middle" font-size="13" fill="#2b2b2b">12</text>
<line x1="618.0" y1="210.0" x2="618.0" y2="234.0" stroke="#2b2b2b" stroke-width="1.1"/>
<text x="633.0" y="226.5" text-anchor="middle" font-size="13" fill="#2b2b2b">13</text>
<text x="718.0" y="155.0" font-size="13" fill="#8a6d3b" text-anchor="start">插入 15</text>
<line x1="790.0" y1="188.0" x2="744.0" y2="210.0" stroke="#2b2b2b" stroke-width="1.3"/>
<line x1="816.0" y1="188.0" x2="797.0" y2="210.0" stroke="#2b2b2b" stroke-width="1.3"/>
<line x1="842.0" y1="188.0" x2="869.0" y2="210.0" stroke="#2b2b2b" stroke-width="1.3"/>
<rect x="790.0" y="164.0" width="52" height="24" rx="3" fill="#e8f6ee" stroke="#2b2b2b" stroke-width="1.3"/>
<text x="803.0" y="180.5" text-anchor="middle" font-size="13" fill="#2b2b2b">6</text>
<line x1="816.0" y1="164.0" x2="816.0" y2="188.0" stroke="#2b2b2b" stroke-width="1.1"/>
<text x="829.0" y="180.5" text-anchor="middle" font-size="13" fill="#2b2b2b">9</text>
<rect x="718.0" y="210.0" width="52" height="24" rx="3" fill="#ffffff" stroke="#2b2b2b" stroke-width="1.3"/>
<text x="731.0" y="226.5" text-anchor="middle" font-size="13" fill="#2b2b2b">2</text>
<line x1="744.0" y1="210.0" x2="744.0" y2="234.0" stroke="#2b2b2b" stroke-width="1.1"/>
<text x="757.0" y="226.5" text-anchor="middle" font-size="13" fill="#2b2b2b">5</text>
<rect x="784.0" y="210.0" width="26" height="24" rx="3" fill="#ffffff" stroke="#2b2b2b" stroke-width="1.3"/>
<text x="797.0" y="226.5" text-anchor="middle" font-size="13" fill="#2b2b2b">8</text>
<rect x="824.0" y="210.0" width="90" height="24" rx="3" fill="#ffffff" stroke="#2b2b2b" stroke-width="1.3"/>
<text x="839.0" y="226.5" text-anchor="middle" font-size="13" fill="#2b2b2b">12</text>
<line x1="854.0" y1="210.0" x2="854.0" y2="234.0" stroke="#2b2b2b" stroke-width="1.1"/>
<text x="869.0" y="226.5" text-anchor="middle" font-size="13" fill="#2b2b2b">13</text>
<line x1="884.0" y1="210.0" x2="884.0" y2="234.0" stroke="#2b2b2b" stroke-width="1.1"/>
<text x="899.0" y="226.5" text-anchor="middle" font-size="13" fill="#2b2b2b">15</text>
</svg>
