<svg width="700" height="290" xmlns="http://www.w3.org/2000/svg" viewBox="0 0 700 290" font-family="Georgia,serif">
<text x="175" y="20" text-anchor="middle" font-size="14" fill="#444" font-weight="bold">图 1</text>
<text x="525" y="20" text-anchor="middle" font-size="14" fill="#444" font-weight="bold">图 2</text>
<line x1="119.4" y1="70.0" x2="68.6" y2="128.0" stroke="#2b2b2b" stroke-width="1.5"/>
<line x1="143.6" y1="66.4" x2="200.4" y2="101.6" stroke="#2b2b2b" stroke-width="1.5"/>
<line x1="226.9" y1="100.6" x2="275.1" y2="65.4" stroke="#2b2b2b" stroke-width="1.5"/>
<line x1="202.8" y1="121.4" x2="161.2" y2="163.6" stroke="#2b2b2b" stroke-width="1.5"/>
<line x1="227.7" y1="118.3" x2="286.3" y2="153.7" stroke="#2b2b2b" stroke-width="1.5"/>
<line x1="73.0" y1="145.7" x2="135.0" y2="169.3" stroke="#2b2b2b" stroke-width="1.5"/>
<line x1="163.3" y1="183.9" x2="218.7" y2="221.1" stroke="#2b2b2b" stroke-width="1.5"/>
<line x1="243.3" y1="218.7" x2="288.7" y2="173.3" stroke="#2b2b2b" stroke-width="1.5"/>
<line x1="457.5" y1="83.9" x2="509.5" y2="70.1" stroke="#2b2b2b" stroke-width="1.5"/>
<line x1="535.0" y1="78.5" x2="565.0" y2="115.5" stroke="#2b2b2b" stroke-width="1.5"/>
<line x1="590.1" y1="133.2" x2="646.9" y2="152.8" stroke="#2b2b2b" stroke-width="1.5"/>
<line x1="570.2" y1="143.3" x2="552.8" y2="198.7" stroke="#2b2b2b" stroke-width="1.5"/>
<line x1="445.5" y1="103.6" x2="458.5" y2="162.4" stroke="#2b2b2b" stroke-width="1.5"/>
<line x1="450.5" y1="189.1" x2="413.5" y2="224.9" stroke="#2b2b2b" stroke-width="1.5"/>
<line x1="476.8" y1="184.2" x2="533.2" y2="207.8" stroke="#2b2b2b" stroke-width="1.5"/>
<line x1="562.4" y1="206.9" x2="647.6" y2="165.1" stroke="#2b2b2b" stroke-width="1.5"/>
<circle cx="130" cy="58" r="16" fill="#fff" stroke="#2b2b2b" stroke-width="1.5"/><text x="130" y="63" text-anchor="middle" font-size="14" fill="#2b2b2b">a</text>
<circle cx="58" cy="140" r="16" fill="#fff" stroke="#2b2b2b" stroke-width="1.5"/><text x="58" y="145" text-anchor="middle" font-size="14" fill="#2b2b2b">b</text>
<circle cx="214" cy="110" r="16" fill="#fff" stroke="#2b2b2b" stroke-width="1.5"/><text x="214" y="115" text-anchor="middle" font-size="14" fill="#2b2b2b">c</text>
<circle cx="288" cy="56" r="16" fill="#fff" stroke="#2b2b2b" stroke-width="1.5"/><text x="288" y="61" text-anchor="middle" font-size="14" fill="#2b2b2b">d</text>
<circle cx="150" cy="175" r="16" fill="#fff" stroke="#2b2b2b" stroke-width="1.5"/><text x="150" y="180" text-anchor="middle" font-size="14" fill="#2b2b2b">e</text>
<circle cx="300" cy="162" r="16" fill="#fff" stroke="#2b2b2b" stroke-width="1.5"/><text x="300" y="167" text-anchor="middle" font-size="14" fill="#2b2b2b">f</text>
<circle cx="232" cy="230" r="16" fill="#fff" stroke="#2b2b2b" stroke-width="1.5"/><text x="232" y="235" text-anchor="middle" font-size="14" fill="#2b2b2b">g</text>
<circle cx="442" cy="88" r="16" fill="#fff" stroke="#2b2b2b" stroke-width="1.5"/><text x="442" y="93" text-anchor="middle" font-size="14" fill="#2b2b2b">p</text>
<circle cx="525" cy="66" r="16" fill="#fff" stroke="#2b2b2b" stroke-width="1.5"/><text x="525" y="71" text-anchor="middle" font-size="14" fill="#2b2b2b">q</text>
<circle cx="575" cy="128" r="16" fill="#fff" stroke="#2b2b2b" stroke-width="1.5"/><text x="575" y="133" text-anchor="middle" font-size="14" fill="#2b2b2b">r</text>
<circle cx="662" cy="158" r="16" fill="#fff" stroke="#2b2b2b" stroke-width="1.5"/><text x="662" y="163" text-anchor="middle" font-size="14" fill="#2b2b2b">s</text>
<circle cx="462" cy="178" r="16" fill="#fff" stroke="#2b2b2b" stroke-width="1.5"/><text x="462" y="183" text-anchor="middle" font-size="14" fill="#2b2b2b">t</text>
<circle cx="402" cy="236" r="16" fill="#fff" stroke="#2b2b2b" stroke-width="1.5"/><text x="402" y="241" text-anchor="middle" font-size="14" fill="#2b2b2b">u</text>
<circle cx="548" cy="214" r="16" fill="#fff" stroke="#2b2b2b" stroke-width="1.5"/><text x="548" y="219" text-anchor="middle" font-size="14" fill="#2b2b2b">v</text>
<text x="175" y="275" text-anchor="middle" font-size="11" fill="#888" font-weight="normal">（顶点字母为便于叙述所加）</text>
</svg>
