<svg width="495" height="430" xmlns="http://www.w3.org/2000/svg" viewBox="0 0 495 430" font-family="Georgia,serif"><defs><marker id="ah" viewBox="0 0 10 10" refX="9" refY="5" markerWidth="7" markerHeight="7" orient="auto-start-reverse"><path d="M 0 0 L 10 5 L 0 10 z" fill="#2b2b2b"/></marker></defs>
<line x1="231.8" y1="54.0" x2="84.8" y2="154.8" stroke="#2b2b2b" stroke-width="1.5" marker-end="url(#ah)"/>
<text x="151.5" y="98.5" text-anchor="middle" font-size="12" fill="#8a5a00">3</text>
<line x1="245.0" y1="61.0" x2="245.0" y2="147.0" stroke="#2b2b2b" stroke-width="1.5" marker-end="url(#ah)"/>
<text x="233.0" y="108.0" text-anchor="middle" font-size="12" fill="#8a5a00">3</text>
<line x1="258.2" y1="54.0" x2="405.2" y2="154.8" stroke="#2b2b2b" stroke-width="1.5" marker-end="url(#ah)"/>
<text x="324.9" y="118.3" text-anchor="middle" font-size="12" fill="#8a5a00">6</text>
<line x1="86.0" y1="165.0" x2="227.0" y2="165.0" stroke="#2b2b2b" stroke-width="1.5" marker-end="url(#ah)"/>
<text x="156.5" y="181.0" text-anchor="middle" font-size="12" fill="#8a5a00">4</text>
<line x1="78.1" y1="178.8" x2="130.9" y2="269.5" stroke="#2b2b2b" stroke-width="1.5" marker-end="url(#ah)"/>
<text x="94.1" y="234.2" text-anchor="middle" font-size="12" fill="#8a5a00">5</text>
<line x1="234.5" y1="177.0" x2="151.9" y2="271.5" stroke="#2b2b2b" stroke-width="1.5" marker-end="url(#ah)"/>
<text x="184.1" y="220.3" text-anchor="middle" font-size="12" fill="#8a5a00">4</text>
<line x1="411.9" y1="178.8" x2="359.1" y2="269.5" stroke="#2b2b2b" stroke-width="1.5" marker-end="url(#ah)"/>
<text x="375.1" y="222.1" text-anchor="middle" font-size="12" fill="#8a5a00">5</text>
<line x1="339.5" y1="273.0" x2="256.9" y2="178.5" stroke="#2b2b2b" stroke-width="1.5" marker-end="url(#ah)"/>
<text x="307.2" y="221.9" text-anchor="middle" font-size="12" fill="#8a5a00">3</text>
<line x1="151.9" y1="295.7" x2="231.7" y2="367.9" stroke="#2b2b2b" stroke-width="1.5" marker-end="url(#ah)"/>
<text x="183.7" y="344.7" text-anchor="middle" font-size="12" fill="#8a5a00">3</text>
<line x1="338.1" y1="295.7" x2="258.3" y2="367.9" stroke="#2b2b2b" stroke-width="1.5" marker-end="url(#ah)"/>
<text x="290.2" y="326.9" text-anchor="middle" font-size="12" fill="#8a5a00">7</text>
<circle cx="245" cy="45" r="16" fill="#fff" stroke="#2b2b2b" stroke-width="1.5"/><text x="245" y="50" text-anchor="middle" font-size="14" fill="#2b2b2b">1</text>
<circle cx="70" cy="165" r="16" fill="#fff" stroke="#2b2b2b" stroke-width="1.5"/><text x="70" y="170" text-anchor="middle" font-size="14" fill="#2b2b2b">2</text>
<circle cx="245" cy="165" r="16" fill="#fff" stroke="#2b2b2b" stroke-width="1.5"/><text x="245" y="170" text-anchor="middle" font-size="14" fill="#2b2b2b">3</text>
<circle cx="420" cy="165" r="16" fill="#fff" stroke="#2b2b2b" stroke-width="1.5"/><text x="420" y="170" text-anchor="middle" font-size="14" fill="#2b2b2b">4</text>
<circle cx="140" cy="285" r="16" fill="#fff" stroke="#2b2b2b" stroke-width="1.5"/><text x="140" y="290" text-anchor="middle" font-size="14" fill="#2b2b2b">5</text>
<circle cx="350" cy="285" r="16" fill="#fff" stroke="#2b2b2b" stroke-width="1.5"/><text x="350" y="290" text-anchor="middle" font-size="14" fill="#2b2b2b">6</text>
<circle cx="245" cy="380" r="16" fill="#fff" stroke="#2b2b2b" stroke-width="1.5"/><text x="245" y="385" text-anchor="middle" font-size="14" fill="#2b2b2b">7</text>
</svg>
