<svg width="470" height="375" xmlns="http://www.w3.org/2000/svg" viewBox="0 0 470 375" font-family="Georgia,serif"><defs><marker id="ah" viewBox="0 0 10 10" refX="9" refY="5" markerWidth="7" markerHeight="7" orient="auto-start-reverse"><path d="M 0 0 L 10 5 L 0 10 z" fill="#2b2b2b"/></marker></defs>
<line x1="216.0" y1="52.7" x2="90.8" y2="121.3" stroke="#2b2b2b" stroke-width="1.5" marker-end="url(#ah)"/>
<line x1="244.1" y1="52.5" x2="374.1" y2="121.6" stroke="#2b2b2b" stroke-width="1.5" marker-end="url(#ah)"/>
<line x1="75.0" y1="146.0" x2="75.0" y2="232.0" stroke="#2b2b2b" stroke-width="1.5" marker-end="url(#ah)"/>
<line x1="85.3" y1="142.3" x2="218.4" y2="301.2" stroke="#2b2b2b" stroke-width="1.5" marker-end="url(#ah)"/>
<line x1="91.0" y1="130.0" x2="372.0" y2="130.0" stroke="#2b2b2b" stroke-width="1.5" marker-end="url(#ah)"/>
<line x1="89.8" y1="256.2" x2="213.4" y2="308.0" stroke="#2b2b2b" stroke-width="1.5" marker-end="url(#ah)"/>
<line x1="244.8" y1="309.0" x2="373.3" y2="256.8" stroke="#2b2b2b" stroke-width="1.5" marker-end="url(#ah)"/>
<line x1="240.5" y1="302.9" x2="378.2" y2="143.6" stroke="#2b2b2b" stroke-width="1.5" marker-end="url(#ah)"/>
<line x1="390.0" y1="234.0" x2="390.0" y2="148.0" stroke="#2b2b2b" stroke-width="1.5" marker-end="url(#ah)"/>
<circle cx="230" cy="45" r="16" fill="#fff" stroke="#2b2b2b" stroke-width="1.5"/><text x="230" y="50" text-anchor="middle" font-size="14" fill="#2b2b2b">A</text>
<circle cx="75" cy="130" r="16" fill="#fff" stroke="#2b2b2b" stroke-width="1.5"/><text x="75" y="135" text-anchor="middle" font-size="14" fill="#2b2b2b">B</text>
<circle cx="390" cy="130" r="16" fill="#fff" stroke="#2b2b2b" stroke-width="1.5"/><text x="390" y="135" text-anchor="middle" font-size="14" fill="#2b2b2b">F</text>
<circle cx="75" cy="250" r="16" fill="#fff" stroke="#2b2b2b" stroke-width="1.5"/><text x="75" y="255" text-anchor="middle" font-size="14" fill="#2b2b2b">C</text>
<circle cx="390" cy="250" r="16" fill="#fff" stroke="#2b2b2b" stroke-width="1.5"/><text x="390" y="255" text-anchor="middle" font-size="14" fill="#2b2b2b">E</text>
<circle cx="230" cy="315" r="16" fill="#fff" stroke="#2b2b2b" stroke-width="1.5"/><text x="230" y="320" text-anchor="middle" font-size="14" fill="#2b2b2b">D</text>
</svg>
